<svg version="1.1" id="Layer_1" xmlns="http://www.w3.org/2000/svg" xmlns:xlink="http://www.w3.org/1999/xlink" x="0px" y="0px" height="500px" width="500px" viewBox="0 0 72 72" enable-background="new 0 0 72 72" xml:space="preserve">
    <polygon fill="#4095D1" points="3.8,31.7 3.8,45.3 14.4,49.1 14.4,35.6 "></polygon>
    <polygon fill="#EF4637" points="13.9,27.6 3.8,31.7 14.3,35.6 24.5,31.5 "></polygon>
    <polygon fill="#30B455" points="24.5,31.5 24.5,45 14.4,49.1 14.3,35.6 "></polygon>
    <polygon fill="#EF4637" points="61.6,26 54.3,28.6 62.9,40.1 70.2,37.5 "></polygon>
    <polygon fill="#4095D1" points="62.9,40.1 53.6,48.8 45,37.3 54.3,28.6 "></polygon>
    <polygon fill="#30B455" points="70.2,37.5 61,46.1 53.6,48.8 62.9,40.1 "></polygon>
    <circle fill="#FEEA39" cx="57.6" cy="10.7" r="3.1"></circle>
    <polygon fill="#939598" points="14.2,52.1 1.2,57.3 14.2,62.3 27.1,57.2 "></polygon>
    <polygon fill="#939598" points="54,52.1 41,57.3 59.2,64.4 70.8,58.9 "></polygon>
    <circle fill="#FEEA39" cx="14.2" cy="10.7" r="3.1"></circle>
    <radialGradient id="SVGID_1_" cx="13.9311" cy="61.1319" r="3.4011" fx="16.5038" fy="58.9074" gradientTransform="matrix(1 0 0 -1 0 72)" gradientUnits="userSpaceOnUse">
        <stop offset="0" style="stop-color: rgb(255, 255, 255);"></stop>
        <stop offset="0.3652" style="stop-color: rgb(253, 253, 253); stop-opacity: 0.6348;"></stop>
        <stop offset="0.5102" style="stop-color: rgb(246, 246, 246); stop-opacity: 0.4898;"></stop>
        <stop offset="0.6161" style="stop-color: rgb(234, 234, 234); stop-opacity: 0.3839;"></stop>
        <stop offset="0.703" style="stop-color: rgb(217, 216, 217); stop-opacity: 0.297;"></stop>
        <stop offset="0.7782" style="stop-color: rgb(194, 194, 194); stop-opacity: 0.2218;"></stop>
        <stop offset="0.8454" style="stop-color: rgb(166, 166, 167); stop-opacity: 0.1546;"></stop>
        <stop offset="0.9065" style="stop-color: rgb(133, 133, 134); stop-opacity: 0.0935376;"></stop>
        <stop offset="0.9612" style="stop-color: rgb(96, 95, 97); stop-opacity: 0.0388103;"></stop>
        <stop offset="1" style="stop-color: rgb(65, 64, 66); stop-opacity: 0;"></stop>
    </radialGradient>
    <circle opacity="0.3" fill="url(#SVGID_1_)" enable-background="new    " cx="14.2" cy="10.7" r="3.1"></circle>
    <ellipse transform="matrix(0.5772 -0.8166 0.8166 0.5772 -0.6958 16.7075)" opacity="0.35" fill="#FFFFFF" enable-background="new    " cx="15.8" cy="9" rx="0.5" ry="0.7"></ellipse>
    <radialGradient id="SVGID_2_" cx="57.3721" cy="61.1319" r="3.4011" fx="59.9448" fy="58.9074" gradientTransform="matrix(1 0 0 -1 0 72)" gradientUnits="userSpaceOnUse">
        <stop offset="0" style="stop-color: rgb(255, 255, 255);"></stop>
        <stop offset="0.3652" style="stop-color: rgb(253, 253, 253); stop-opacity: 0.6348;"></stop>
        <stop offset="0.5102" style="stop-color: rgb(246, 246, 246); stop-opacity: 0.4898;"></stop>
        <stop offset="0.6161" style="stop-color: rgb(234, 234, 234); stop-opacity: 0.3839;"></stop>
        <stop offset="0.703" style="stop-color: rgb(217, 216, 217); stop-opacity: 0.297;"></stop>
        <stop offset="0.7782" style="stop-color: rgb(194, 194, 194); stop-opacity: 0.2218;"></stop>
        <stop offset="0.8454" style="stop-color: rgb(166, 166, 167); stop-opacity: 0.1546;"></stop>
        <stop offset="0.9065" style="stop-color: rgb(133, 133, 134); stop-opacity: 0.0935376;"></stop>
        <stop offset="0.9612" style="stop-color: rgb(96, 95, 97); stop-opacity: 0.0388103;"></stop>
        <stop offset="1" style="stop-color: rgb(65, 64, 66); stop-opacity: 0;"></stop>
    </radialGradient>
    <circle opacity="0.3" fill="url(#SVGID_2_)" enable-background="new    " cx="57.6" cy="10.7" r="3.1"></circle>
    <ellipse transform="matrix(0.5772 -0.8166 0.8166 0.5772 17.6741 52.1437)" opacity="0.35" fill="#FFFFFF" enable-background="new    " cx="59.2" cy="9" rx="0.5" ry="0.7"></ellipse>
</svg>
